<svg version="1" xmlns="http://www.w3.org/2000/svg" width="3312" height="3312" viewBox="0 0 2484.000000 2484.000000"><path d="M1167.5 41.6c-31.4 1.9-59.7 4.4-62 5.4-1.1.4-10.4 1.8-20.6 3-15.7 1.8-27 3.5-58.9 8.5-19.9 3.1-45.9 8.2-48.5 9.5-1.1.5-11.4 3-23 5.6-11.5 2.5-21.2 4.9-21.5 5.3-.3.4-9 2.9-19.5 5.6-10.4 2.7-19.2 5.2-19.5 5.6-.3.3-5.2 2-11 3.7-5.8 1.7-13.2 3.8-16.5 4.8-3.3 1-6.2 2.1-6.5 2.5-.5.6-10.2 3.7-23.5 7.5-3.3.9-6.2 2-6.5 2.4-.3.4-6.3 2.6-13.5 5-7.1 2.3-14 4.9-15.3 5.7-1.3.8-5.4 2.6-9 3.9-7.3 2.7-7.2 2.6-18.2 7.7-4.1 1.9-11.3 4.9-16 6.7-4.7 1.9-8.7 3.7-9 4-.3.4-5 2.5-10.5 4.8s-10.7 4.7-11.5 5.2c-1.8 1.2-2.7 1.6-14.5 6.6-4.9 2.1-9.2 4.1-9.5 4.5-.3.4-4.8 2.8-10 5.3-5.2 2.6-9.7 5.1-10 5.6-.3.4-4.8 2.9-10 5.4-5.2 2.5-10 5-10.6 5.5-.6.5-5.8 3.5-11.5 6.7-11.1 6.1-22.1 12.2-34.6 19.3-4.3 2.4-8.7 5.2-9.8 6.1-1.1 1-5.3 3.6-9.2 5.9-4 2.3-7.3 4.6-7.3 5.1 0 .6-.4 1-1 1-1 0-13.5 8.1-16 10.4-.8.7-4.6 3.3-8.5 5.6-3.8 2.3-7.2 4.6-7.5 4.9-.3.4-3.6 2.7-7.5 5.1-3.8 2.4-7.4 4.9-8 5.5-.5.7-3.9 3.2-7.5 5.6-3.6 2.4-7.3 5-8.3 6-1 .9-4.3 3.4-7.5 5.5-3.1 2.1-5.8 4.2-6 4.6-.2.4-3.3 2.8-6.9 5.4-3.7 2.6-7.4 5.5-8.3 6.4-.9.9-3.9 3.2-6.6 5-2.7 1.9-5.1 3.7-5.4 4.2-.4.4-3.3 2.9-6.7 5.5-3.3 2.7-9.9 8.2-14.7 12.3-4.8 4.1-10.3 8.7-12.2 10.1-1.8 1.5-4.7 4-6.2 5.5-1.6 1.6-5.9 5.6-9.7 8.9-7.9 6.9-17.9 16-24.5 22.5-22.4 21.8-33 32.4-43.8 44-6.9 7.4-14.3 15-16.4 16.8-2.1 1.9-3.8 3.9-3.8 4.5 0 .7-1.8 3-4 5.2-2.3 2.2-6.6 6.9-9.7 10.5-3.1 3.6-7.7 8.9-10.2 11.7-2.5 2.9-6.8 8-9.6 11.3-2.7 3.4-6.8 8.3-9 10.9-2.2 2.6-5.3 6.7-7 9-1.6 2.4-4.4 6-6.1 8-1.7 2-4.3 5.3-5.7 7.4-1.5 2.2-4 5.5-5.7 7.5-4.1 4.9-11.6 15.2-17 23.2-2.4 3.6-4.9 7-5.5 7.5-.7.6-3 3.8-5.1 7.2-6.4 10.1-13.7 20.8-14.9 21.5-.5.4-.6.8-.2.8.5 0-.3 1.4-1.7 3-1.3 1.7-3.7 5.3-5.2 8-1.5 2.8-3 5-3.4 5-.8 0-9 12.6-9 13.9 0 .4-.8 1.6-1.9 2.7-1 1.1-3.3 4.7-5.1 8-1.8 3.2-4.5 7.7-6 9.9-1.6 2.3-4.2 7.1-6 10.8-1.7 3.7-3.7 7.3-4.4 8-.6.6-3.1 5-5.5 9.7-2.4 4.7-4.9 8.8-5.5 9.2-.6.5-.7.8-.1.8s.5.3-.1.8c-.6.4-3.3 5-5.9 10.2-2.6 5.2-6.4 12.6-8.6 16.5-4.4 7.9-15.1 29.5-15.3 31-.1.5-1.1 2.6-2.1 4.5-1.9 3.4-5 10.5-8.3 18.5-.9 2.2-2.1 4.3-2.7 4.7-.6.5-.6.8 0 .8s.6.3 0 .8c-.6.4-3 5.6-5.4 11.7-2.4 6-4.6 11.2-5 11.5-.3.3-2.8 6.1-5.5 13s-5.4 12.8-5.9 13.1c-.5.4-.7 1.1-.3 1.7.3.6.2 1.2-.2 1.4-.5.1-2.8 5.9-5.1 12.8-2.4 6.9-4.6 12.9-5.1 13.5-.8 1.1-2.8 7-3.4 10.1-.8 3.9-5.9 19.9-6.5 20.4-.4.3-1.5 3.2-2.4 6.5-4.8 16-8 26.1-8.7 27-.4.5-2.9 9.5-5.5 20-2.7 10.4-5.2 19.2-5.6 19.5-.7.5-9.9 39.6-9.9 42.3 0 .8-.4 1.7-.9 1.9-.8.3-8 36-8.6 42.7-.2 2-.6 4.3-1 5.2-.3 1-.5 2.3-.4 3 .1.8-.1 2.1-.4 2.9-.8 1.9-6 38.4-8.2 58-1 8-2.1 15.4-2.5 16.5-1.1 2.4-3.5 31-5.5 64.8-2 33.1-2 106.3 0 139.4 2 33.8 4.4 62.4 5.5 64.8.4 1.1 1.5 8.5 2.5 16.5 2.2 19.6 7.4 56.1 8.2 58 .3.8.5 2.1.4 2.9-.1.7.1 2 .4 3 .4.9.8 3.2 1 5.2.6 6.7 7.8 42.4 8.6 42.7.5.2.9 1.1.9 1.9 0 2.7 9.2 41.8 9.9 42.3.4.3 2.9 9 5.6 19.5 2.6 10.4 5.1 19.4 5.5 20 .7.9 3.9 11 8.7 27 .9 3.3 2 6.2 2.4 6.5.6.5 5.7 16.5 6.5 20.4.6 3.1 2.6 9 3.4 10.1.5.5 2.7 6.6 5.1 13.5 2.3 6.9 4.6 12.7 5.1 12.8.4.2.5.8.2 1.4-.4.6-.2 1.3.3 1.7.5.3 3.2 6.2 5.9 13.1 2.7 6.9 5.2 12.7 5.5 13 .4.3 2.6 5.5 5 11.5 2.4 6.1 4.8 11.3 5.4 11.7.6.5.6.8 0 .8s-.6.3 0 .8c.6.4 1.8 2.5 2.7 4.7 3.3 8 6.4 15.1 8.3 18.5 1 1.9 2 3.9 2.1 4.5.2 1.5 10.9 23.1 15.3 31 2.2 3.8 6 11.3 8.6 16.5 2.6 5.2 5.3 9.8 5.9 10.2.6.5.7.8.1.8s-.5.3.1.8c.6.4 3.1 4.5 5.5 9.2 2.4 4.7 4.9 9.1 5.5 9.7.7.7 2.7 4.3 4.4 8 1.8 3.7 4.4 8.5 6 10.8 1.5 2.2 4.2 6.7 6 9.9 1.8 3.3 4.1 6.9 5.1 8 1.1 1.1 1.9 2.3 1.9 2.7 0 1.3 8.2 13.9 9 13.9.4 0 1.9 2.2 3.4 5 1.5 2.7 3.9 6.3 5.2 8 1.4 1.6 2.2 3 1.7 3-.4 0-.3.4.2.8 1.2.7 8.5 11.4 14.9 21.5 2.1 3.4 4.4 6.6 5.1 7.2.6.5 3.1 3.9 5.5 7.5 5.4 8 12.9 18.3 17 23.2 1.7 2 4.2 5.3 5.7 7.5 1.4 2.1 4 5.4 5.7 7.4 1.7 2 4.5 5.6 6.1 8 1.7 2.3 4.8 6.4 7 9 2.2 2.6 6.3 7.5 9 10.9 2.8 3.3 7.1 8.4 9.6 11.3 2.5 2.8 7.1 8.1 10.2 11.7 3.1 3.6 7.4 8.3 9.7 10.5 2.2 2.2 4 4.5 4 5.2 0 .6 1.7 2.6 3.8 4.5 2.1 1.8 9.5 9.4 16.4 16.8 10.8 11.6 21.4 22.2 43.8 44 6.6 6.5 16.6 15.6 24.5 22.5 3.8 3.3 8.1 7.3 9.7 8.9 1.5 1.5 4.4 4 6.2 5.5 1.9 1.4 7.4 6 12.2 10.1 4.8 4.1 11.4 9.6 14.7 12.3 3.4 2.6 6.3 5.1 6.7 5.5.3.5 2.7 2.3 5.4 4.2 2.7 1.8 5.7 4.1 6.6 5 .9.9 4.6 3.8 8.3 6.4 3.6 2.6 6.7 5 6.9 5.4.2.4 2.9 2.5 6 4.6 3.2 2.1 6.5 4.6 7.5 5.5 1 1 4.7 3.6 8.3 6 3.6 2.4 7 4.9 7.5 5.6.6.6 4.2 3.1 8 5.5 3.9 2.4 7.2 4.7 7.5 5.1.3.3 3.7 2.6 7.5 4.9 3.9 2.3 7.7 4.9 8.5 5.6 2.5 2.3 15 10.4 16 10.4.6 0 1 .4 1 1 0 .5 3.3 2.8 7.2 5.1 4 2.3 8.2 4.9 9.3 5.9 1.1.9 5.5 3.7 9.8 6.1 12.5 7.1 23.5 13.2 34.6 19.3 5.7 3.2 10.9 6.2 11.5 6.7.6.5 5.4 3 10.6 5.5 5.2 2.5 9.7 5 10 5.4.3.5 4.8 3 10 5.6 5.2 2.5 9.7 4.9 10 5.3.3.4 4.6 2.4 9.5 4.5 11.8 5 12.7 5.4 14.5 6.6.8.5 6 2.9 11.5 5.2 5.5 2.3 10.2 4.4 10.5 4.8.3.3 4.3 2.1 9 4 4.7 1.8 11.9 4.8 16 6.7 11 5.1 10.9 5 18.2 7.7 3.6 1.3 7.7 3.1 9 3.9 1.3.8 8.2 3.4 15.3 5.7 7.2 2.4 13.2 4.6 13.5 5 .3.4 3.2 1.5 6.5 2.4 13.3 3.8 23 6.9 23.5 7.5.3.4 3.2 1.5 6.5 2.5s10.7 3.1 16.5 4.8c5.8 1.7 10.7 3.4 11 3.7.3.4 9.1 2.9 19.5 5.6 10.5 2.7 19.2 5.2 19.5 5.6.3.4 10 2.8 21.5 5.3 11.6 2.6 21.9 5.1 23 5.6 2.6 1.3 28.6 6.4 48.5 9.5 31.9 5 43.2 6.7 58.9 8.5 10.2 1.2 19.5 2.6 20.6 3 2.4 1.1 30.9 3.5 64.8 5.5 33.1 2 106.3 2 139.4 0 33.9-2 62.4-4.4 64.8-5.5 1.1-.4 10.4-1.8 20.6-3 15.7-1.8 27-3.5 58.9-8.5 19.9-3.1 45.9-8.2 48.5-9.5 1.1-.5 11.5-3 23-5.6 11.6-2.5 21.2-4.9 21.5-5.3.3-.4 9.1-2.9 19.5-5.6 10.5-2.7 19.2-5.2 19.5-5.6.3-.3 5.2-2 11-3.7 5.8-1.7 13.2-3.8 16.5-4.8 3.3-1 6.2-2.1 6.5-2.5.5-.6 10.2-3.7 23.5-7.5 3.3-.9 6.2-2 6.5-2.4.3-.4 6.4-2.6 13.5-5 7.2-2.3 14-4.9 15.3-5.7 1.3-.8 5.4-2.6 9-3.9 7.3-2.7 7.2-2.6 18.2-7.7 4.1-1.9 11.3-4.9 16-6.7 4.7-1.9 8.7-3.7 9-4 .3-.4 5-2.5 10.5-4.8s10.7-4.7 11.5-5.2c1.8-1.2 2.7-1.6 14.5-6.6 5-2.1 9.2-4.1 9.5-4.5.3-.4 4.8-2.8 10-5.3 5.2-2.6 9.7-5.1 10-5.6.3-.4 4.8-2.9 10-5.4 5.2-2.5 10-5 10.6-5.5.6-.5 5.8-3.5 11.5-6.7 11.1-6.1 22.1-12.2 34.6-19.3 4.3-2.4 8.7-5.2 9.8-6.1 1.1-1 5.3-3.6 9.3-5.9 3.9-2.3 7.2-4.6 7.2-5.1 0-.6.4-1 1-1 1 0 13.5-8.1 16-10.4.8-.7 4.7-3.3 8.5-5.6 3.9-2.3 7.2-4.6 7.5-4.9.3-.4 3.7-2.7 7.5-5.1 3.9-2.4 7.5-4.9 8-5.5.6-.7 3.9-3.2 7.5-5.6 3.6-2.4 7.3-5 8.3-6 1-.9 4.3-3.4 7.5-5.5 3.1-2.1 5.8-4.2 6-4.6.2-.4 3.3-2.8 6.9-5.4 3.7-2.6 7.4-5.5 8.3-6.4.9-.9 3.9-3.2 6.6-5 2.7-1.9 5.1-3.7 5.4-4.2.4-.4 3.3-2.9 6.7-5.5 3.3-2.7 9.9-8.2 14.7-12.3 4.8-4.1 10.3-8.7 12.2-10.1 1.8-1.5 4.7-4 6.2-5.5 1.6-1.6 5.9-5.6 9.7-8.9 7.9-6.9 17.9-16 24.5-22.5 22.4-21.8 33-32.4 43.8-44 6.9-7.4 14.3-15 16.4-16.8 2.1-1.9 3.8-3.9 3.8-4.5 0-.7 1.8-3 4-5.2 2.3-2.2 6.6-6.9 9.7-10.5 3.1-3.6 7.7-8.9 10.2-11.7 2.5-2.9 6.9-8 9.6-11.3 2.8-3.4 6.8-8.3 9-10.9 2.2-2.6 5.4-6.7 7-9 1.7-2.4 4.4-6 6.1-8 1.7-2 4.3-5.3 5.7-7.4 1.5-2.2 4-5.5 5.7-7.5 4.1-4.9 11.6-15.2 17-23.2 2.4-3.6 4.9-7 5.5-7.5.7-.6 3-3.8 5.1-7.2 6.4-10.1 13.7-20.8 14.9-21.5.5-.4.6-.8.2-.8-.5 0 .3-1.4 1.7-3 1.3-1.7 3.7-5.3 5.2-8 1.5-2.8 3-5 3.4-5 .8 0 9-12.6 9-13.9 0-.4.8-1.6 1.9-2.7 1-1.1 3.3-4.7 5.1-8 1.8-3.2 4.5-7.7 6-9.9 1.6-2.3 4.2-7.1 6-10.8 1.7-3.7 3.7-7.3 4.4-8 .6-.6 3.1-5 5.5-9.7 2.4-4.7 4.9-8.8 5.5-9.2.6-.5.7-.8.1-.8s-.5-.3.1-.8c.6-.4 3.3-5 5.9-10.2 2.6-5.2 6.4-12.7 8.6-16.5 4.4-7.9 15.1-29.5 15.3-31 .1-.6 1.1-2.6 2.1-4.5 1.9-3.4 5-10.5 8.3-18.5.9-2.2 2.1-4.3 2.7-4.7.6-.5.6-.8 0-.8s-.6-.3 0-.8c.6-.4 3-5.6 5.4-11.7 2.4-6 4.6-11.2 5-11.5.3-.3 2.8-6.1 5.5-13s5.4-12.8 5.9-13.1c.5-.4.7-1.1.3-1.7-.3-.6-.2-1.2.2-1.4.5-.1 2.8-5.9 5.1-12.8 2.4-6.9 4.6-13 5.1-13.5.8-1.1 2.8-7 3.4-10.1.8-3.9 5.9-19.9 6.5-20.4.4-.3 1.5-3.2 2.4-6.5 4.8-16 8-26.1 8.7-27 .4-.6 2.9-9.6 5.5-20 2.7-10.5 5.2-19.2 5.6-19.5.7-.5 9.9-39.6 9.9-42.3 0-.8.4-1.7.9-1.9.8-.3 8-36 8.6-42.7.2-2 .6-4.3 1-5.2.3-1 .5-2.3.4-3-.1-.8.1-2.1.4-2.9.8-1.9 6-38.4 8.2-58 1-8 2.1-15.4 2.5-16.5 1.1-2.4 3.5-31 5.5-64.8 2-33.1 2-106.3 0-139.4-2-33.8-4.4-62.4-5.5-64.8-.4-1.1-1.5-8.5-2.5-16.5-2.2-19.6-7.4-56.1-8.2-58-.3-.8-.5-2.1-.4-2.9.1-.7-.1-2-.4-3-.4-.9-.8-3.2-1-5.2-.6-6.7-7.8-42.4-8.6-42.7-.5-.2-.9-1.1-.9-1.9 0-2.7-9.2-41.8-9.9-42.3-.4-.3-2.9-9.1-5.6-19.5-2.6-10.5-5.1-19.5-5.5-20-.7-.9-3.9-11-8.7-27-.9-3.3-2-6.2-2.4-6.5-.6-.5-5.7-16.5-6.5-20.4-.6-3.1-2.6-9-3.4-10.1-.5-.6-2.7-6.6-5.1-13.5-2.3-6.9-4.6-12.7-5.1-12.8-.4-.2-.5-.8-.2-1.4.4-.6.2-1.3-.3-1.7-.5-.3-3.2-6.2-5.9-13.1-2.7-6.9-5.2-12.7-5.5-13-.4-.3-2.6-5.5-5-11.5-2.4-6.1-4.8-11.3-5.4-11.7-.6-.5-.6-.8 0-.8s.6-.3 0-.8c-.6-.4-1.8-2.5-2.7-4.7-3.3-8-6.4-15.1-8.3-18.5-1-1.9-2-4-2.1-4.5-.2-1.5-10.9-23.1-15.3-31-2.2-3.9-6-11.3-8.6-16.5-2.6-5.2-5.3-9.8-5.9-10.2-.6-.5-.7-.8-.1-.8s.5-.3-.1-.8c-.6-.4-3.1-4.5-5.5-9.2-2.4-4.7-4.9-9.1-5.5-9.7-.7-.7-2.7-4.3-4.4-8-1.8-3.7-4.4-8.5-6-10.8-1.5-2.2-4.2-6.7-6-9.9-1.8-3.3-4.1-6.9-5.1-8-1.1-1.1-1.9-2.3-1.9-2.7 0-1.3-8.2-13.9-9-13.9-.4 0-1.9-2.2-3.4-5-1.5-2.7-3.9-6.3-5.2-8-1.4-1.6-2.2-3-1.7-3 .4 0 .3-.4-.2-.8-1.2-.7-8.5-11.4-14.9-21.5-2.1-3.4-4.4-6.6-5.1-7.2-.6-.5-3.1-3.9-5.5-7.5-5.4-8-12.9-18.3-17-23.2-1.7-2-4.2-5.3-5.7-7.5-1.4-2.1-4-5.4-5.7-7.4-1.7-2-4.4-5.6-6.1-8-1.6-2.3-4.8-6.4-7-9-2.2-2.6-6.2-7.5-9-10.9-2.7-3.3-7.1-8.4-9.6-11.3-2.5-2.8-7.1-8.1-10.2-11.7-3.1-3.6-7.4-8.3-9.7-10.5-2.2-2.2-4-4.5-4-5.2 0-.6-1.7-2.6-3.8-4.5-2.1-1.8-9.5-9.4-16.4-16.8-10.8-11.6-21.4-22.2-43.8-44-6.6-6.5-16.6-15.6-24.5-22.5-3.8-3.3-8.1-7.3-9.7-8.9-1.5-1.5-4.4-4-6.2-5.5-1.9-1.4-7.4-6-12.2-10.1-4.8-4.1-11.4-9.6-14.7-12.3-3.4-2.6-6.3-5.1-6.7-5.5-.3-.5-2.7-2.3-5.4-4.2-2.7-1.8-5.7-4.1-6.6-5-.9-.9-4.6-3.8-8.3-6.4-3.6-2.6-6.7-5-6.9-5.4-.2-.4-2.9-2.5-6-4.6-3.2-2.1-6.5-4.6-7.5-5.5-1-1-4.7-3.6-8.3-6-3.6-2.4-6.9-4.9-7.5-5.6-.5-.6-4.1-3.1-8-5.5-3.8-2.4-7.2-4.7-7.5-5.1-.3-.3-3.6-2.6-7.5-4.9-3.8-2.3-7.7-4.9-8.5-5.6-2.5-2.3-15-10.4-16-10.4-.6 0-1-.4-1-1 0-.5-3.3-2.8-7.2-5.1-4-2.3-8.2-4.9-9.3-5.9-1.1-.9-5.5-3.7-9.8-6.1-12.5-7.1-23.5-13.2-34.6-19.3-5.7-3.2-10.9-6.2-11.5-6.7-.6-.5-5.4-3-10.6-5.5-5.2-2.5-9.7-5-10-5.4-.3-.5-4.8-3-10-5.6-5.2-2.5-9.7-4.9-10-5.3-.3-.4-4.5-2.4-9.5-4.5-11.8-5-12.7-5.4-14.5-6.6-.8-.5-6-2.9-11.5-5.2-5.5-2.3-10.2-4.4-10.5-4.8-.3-.3-4.3-2.1-9-4-4.7-1.8-11.9-4.8-16-6.7-11-5.1-10.9-5-18.2-7.7-3.6-1.3-7.7-3.1-9-3.9-1.3-.8-8.1-3.4-15.3-5.7-7.1-2.4-13.2-4.6-13.5-5-.3-.4-3.2-1.5-6.5-2.4-13.3-3.8-23-6.9-23.5-7.5-.3-.4-3.2-1.5-6.5-2.5s-10.7-3.1-16.5-4.8c-5.8-1.7-10.7-3.4-11-3.7-.3-.4-9-2.9-19.5-5.6-10.4-2.7-19.2-5.2-19.5-5.6-.3-.4-9.9-2.8-21.5-5.3-11.5-2.6-21.9-5.1-23-5.6-2.6-1.3-28.6-6.4-48.5-9.5-31.9-5-43.2-6.7-58.9-8.5-10.2-1.2-19.5-2.6-20.6-3-2.4-1.1-30.9-3.5-64.8-5.5-30.8-1.9-112-1.8-142.2.1zM1282 128c242.1 9.9 468.6 94.4 657 245.3 50.7 40.6 106.1 94.4 149.1 144.7 145.1 169.7 236 379.3 260.8 601.5 10.4 93.2 8.9 189.6-4.5 282.5-30.2 209.2-119.3 405.9-256.3 566-35.3 41.3-82.1 88-123.1 123.1-234.4 200.4-542.3 295.1-848.5 260.8-222.2-24.8-431.8-115.7-601.5-260.8-41-35.1-87.8-81.8-123.1-123.1-208.4-243.5-302.1-566.7-256.3-884 31.8-220.4 128.7-426.1 278.3-591 15.6-17.2 53.5-55.2 71.6-71.8 116.9-107.4 252.5-187 403.6-237.3 126-41.9 261.9-61.2 392.9-55.9z"/><path d="M1241 155.1c-28.5 2.6-50.8 12.4-68.5 30.3-7.3 7.3-10 10.9-13.8 18.3-7 13.6-9 21.9-9 38.3-.1 20 3.6 33.3 13.6 48.7 7.7 11.9 16.6 19.6 30 25.8 9.6 4.4 19.6 7.2 55.7 15.4 31.5 7.2 39.9 9.7 44.4 13.2 4.3 3.4 7 9.6 7 16.5.1 5.1-.4 6.7-2.8 10.2-7.4 10.7-25.1 16.2-47.6 14.8-25.2-1.6-38-9.6-43.9-27.6-.8-2.5-2.4-4.3-5.6-6.3-2.5-1.5-5.3-2.7-6.1-2.7-1.2 0-31.1 7.3-45.6 11.1-2.8.7-4.2 2-6.3 5.5-3.5 5.9-3.1 9.2 2.3 20.6 14.2 30.4 37.7 47.4 77.2 55.9 9.1 2 13.4 2.3 32 2.3 19.5 0 22.7-.3 34.2-2.7 43.6-9.2 72.3-33.4 81-68.2 2.9-11.7 3.1-31.4.5-42.4-4.4-18.3-13.7-33.7-26.6-44.1-12.7-10.2-28.6-16.2-61.6-23.4-39.7-8.7-43.6-9.7-50.9-13.5-8.4-4.3-11.6-8.4-11.6-14.8 0-6.1 2-10.3 7-14.6 6.9-5.9 12.2-7.2 29-7.2 14.4 0 14.6 0 21.2 3.3 7.9 3.9 11 7.2 15.4 16.8 2.4 5.1 4 7.3 5.6 7.8 2.1.5 23-4.9 46.4-11.9 7.9-2.4 8.1-2.6 10.8-7.5 2.7-5 2.7-5.1 1.2-10.3-4-13.4-16.5-29.5-29.7-38.2-15.9-10.6-36.1-17.4-58-19.4-12.5-1.2-14.3-1.2-26.9 0zM960 202.1c-57.5 15.3-105.1 28.1-105.8 28.6-.7.4-2.5 2.9-4 5.5l-2.7 4.8 2.3 8.7c1.2 4.9 3.6 14.1 5.4 20.6l3.1 11.9 4.6 2.9c2.5 1.6 5.7 2.8 7.1 2.8 1.4 0 17.1-4 35-8.8 17.9-4.8 32.6-8.7 32.6-8.7.1.1 11.5 42.8 25.3 95.1 13.9 52.2 25.6 96.4 26.2 98 .7 2.2 2.4 3.9 6.2 5.9l5.3 2.9 25.4-6.7c35.7-9.4 34.4-8.9 37.4-14.1 1.4-2.4 2.6-5.2 2.6-6.1 0-1-11.5-45.2-25.6-98.2-14.1-53-25.2-96.8-24.7-97.2.4-.4 14.9-4.4 32.2-8.9 17.3-4.6 32.4-8.7 33.6-9.1 2.3-.9 7.5-8.8 7.5-11.4 0-1.4-9.3-36.6-10.4-39.6-.9-2.2-9.3-7-11.9-6.9-1.2.1-49.2 12.6-106.7 28zM1442 175.8c-2.3.8-8.9 6.2-10 8.2-.7 1.3 1.2 44.3 6 134.2 3.8 72.8 7.1 134 7.4 136.2.2 2.1 1.1 4.5 1.9 5.3 1.8 1.8 61.5 20.5 64.1 20.1 2-.3 167.6-211.9 169.6-216.7 1.2-2.7-1.4-12.3-3.9-14.5-2-1.7-46.7-15.6-50.3-15.6-2.3 0-9.3 8.8-57 71-49.8 65.1-54.4 70.7-55 68.2-.4-1.5-2.1-36.9-3.8-78.7-3.7-90.4-4-96.1-5.4-98-.6-.8-12.6-5-26.6-9.4-34-10.5-35.3-10.9-37-10.3zM758 268.7c-.8.3-9.5 5.7-19.2 12-15.4 10-17.8 11.9-18.8 14.9-2.8 8.3-4 6 37.8 69.8 21.6 32.9 39.1 60 39 60.2-.2.1-36.9-15.4-81.6-34.6-44.8-19.2-82.6-35.3-84.2-35.9-2.2-.7-3.6-.6-6.4.8-8.1 4.2-50.5 32.8-51.5 34.7-.5 1.2-1.2 4.1-1.6 6.6l-.7 4.4 70.7 108c38.9 59.3 71.5 108.7 72.6 109.6 1.1.9 4.3 2 7.2 2.3l5.3.7 18.7-12.2c17.6-11.6 18.7-12.5 19.8-16.2.6-2.2 1.1-5.2 1.1-6.7.1-1.8-11.8-20.7-40.2-64.1-22.1-33.8-41.1-62.7-42.2-64.3l-1.9-2.7 2.3.9c1.3.5 41.2 17.6 88.8 38 47.6 20.4 87.6 37.1 88.9 37.1 2.8 0 46.7-28.4 48.8-31.6.7-1.2 1.6-4.3 1.9-7l.6-4.9L842.1 380c-54.5-83.1-71.8-108.8-73.9-109.6-3.6-1.5-8.4-2.3-10.2-1.7zM1759.3 303.3c-2.3.7-4.9 1.9-5.7 2.7-.8.8-30.3 49.6-65.7 108.4-68.5 114.1-65.8 109.1-62.6 116.8 1.2 2.8 4.8 5.4 23.7 16.7 21.9 13.1 22.3 13.3 26.9 12.7 2.5-.3 5.6-1.4 6.9-2.4 1.2-.9 31.3-50 66.8-109.1 61.5-102.4 64.6-107.7 64-111.2-1.3-8-1.5-8.1-25.2-22.3-12.5-7.5-23.2-13.6-23.8-13.5-.6.1-3 .6-5.3 1.2zM1924 415.9c-4.1.9 1.6-5-101.8 103.4l-76.2 79.8v5.9c0 5.1.4 6.4 2.8 8.9 1.5 1.6 28.2 27.2 59.4 56.9 61.4 58.6 59.4 57 67.6 54.2 5.1-1.6 31.3-29.2 32.6-34.2 2-8.1 2.4-7.6-37.5-45.7l-37.1-35.4 4.5-4.6c2.4-2.5 33.5-35.1 69-72.3L1972 465v-6.1c0-6.2 0-6.2-5.3-11.3-7.8-7.6-25.7-24.6-29.7-28.3-3.9-3.6-7.6-4.5-13-3.4zM1186 474.1c-180.1 13.4-345.4 86.1-475.7 209-42.7 40.4-79.5 84.1-112.8 134.4-15.8 23.9-22.6 35.1-35.6 59.1-8 14.8-27.9 55.4-27.9 56.9 0 .3-1.1 2.8-2.4 5.7-6 13.2-17.8 44.4-24.4 64.8-19.6 60.2-31.2 119.7-36.2 186.4-1.3 16.7-1.3 88.5 0 105.2 5 66.7 16.6 126.2 36.2 186.4 6.6 20.4 18.4 51.6 24.4 64.8 1.3 2.9 2.4 5.4 2.4 5.7 0 1.5 19.9 42.1 27.9 56.9 27.3 50.4 61.2 99.2 97.5 140.6 91.4 103.9 205.1 179.8 334.9 223.4 63.6 21.4 124 33.5 193.2 38.6 18.1 1.3 86.9 1.3 105 0 135.1-10 258.8-51.6 370-124.5 88.2-57.8 161.6-130.8 220-219 15.8-23.9 22.6-35.1 35.6-59.1 8-14.8 27.9-55.4 27.9-56.9 0-.3 1.1-2.8 2.4-5.7 6-13.2 17.8-44.4 24.4-64.8 19.6-60.2 31.2-119.7 36.2-186.4 1.3-16.7 1.3-88.5 0-105.2-5-66.7-16.6-126.2-36.2-186.4-6.6-20.4-18.4-51.6-24.4-64.8-1.3-2.9-2.4-5.4-2.4-5.7 0-1.5-19.9-42.1-27.9-56.9-27.3-50.4-61.2-99.2-97.5-140.6-91.4-103.9-205.1-179.8-334.9-223.4-63.6-21.4-124-33.5-193.2-38.6-15.9-1.1-90.7-1.1-106.5.1zm124.2 49.9c16.3 1.7 25.9 3 51.8 7 24.5 3.8 46 8.8 78 18 4.1 1.2 9.5 2.8 12 3.5 13.3 3.8 40.3 13 41.3 13.9.7.7 4.3 2.2 8.1 3.4 3.8 1.3 10.4 3.9 14.5 5.8 4.2 2 8.3 3.7 9.2 3.9 2.7.6 29.2 12.5 30.9 13.9.8.7 4.2 2.5 7.5 3.9 3.3 1.5 6.7 3.2 7.5 3.7.8.6 5.8 3.2 11 5.8 14.1 7.2 21.5 11.3 21.8 12.3.2.5 1 .9 1.8.9s1.4.4 1.4 1c0 .5 1.1 1.2 2.5 1.6 1.4.3 2.5.9 2.5 1.3s1.2 1.3 2.8 2c4.8 2.2 29.5 18 30 19.3.2.4 1 .8 1.7.8s1.5.4 1.7.8c.3.9 16.3 12.2 17.2 12.2.3 0 1.7 1.1 3.2 2.5 1.5 1.4 3.1 2.5 3.6 2.5s2.6 1.7 4.7 3.7c2 2.1 4 3.8 4.3 3.8 1 0 25.9 19.9 31.4 25 2.6 2.5 4.8 4.5 4.8 4.5 1.9.1 71.6 69.9 71.6 71.7 0 .5 17.3 21.9 18.6 22.9.8.6 1.4 1.6 1.4 2.1 0 .6 1.6 2.7 3.5 4.7 1.9 2.1 3.5 4.2 3.5 4.7s.7 1.2 1.5 1.5c.8.4 1.3.9 1 1.3-.2.4.9 2.2 2.5 4 3.2 3.5 9 11.6 9 12.6 0 .8 5.3 7.9 6.3 8.3.4.2.7 1 .7 1.8s.5 1.4 1 1.4c.6 0 1 .6 1 1.3 0 .7.9 1.9 2 2.7 1.1.8 2 2 2 2.7 0 .7.4 1.3.9 1.3.4 0 2.3 2.9 4.2 6.5 1.8 3.5 4.3 7.6 5.6 9.1 1.3 1.5 2.3 3.2 2.3 3.7 0 .9 8.7 14.6 9.9 15.7.3.3.7 1.2.9 2 .2.8 1.6 3.5 3.2 6s4.6 8.1 6.8 12.5c2.1 4.4 7.1 14.3 11 22 9.8 19.4 15.1 30.6 15.5 33 .5 2.4 1.5 4.9 6 14.5 1.9 4.1 3.7 8.8 4 10.5.7 4 2.4 8.3 4 9.9.6.7 2.3 4.6 3.6 8.7 1.3 4.1 4.1 12.6 6.2 18.9 2.1 6.3 4 13.1 4.3 15 .3 1.9 1.7 6.9 3 11 3.6 10.8 8.6 30.2 8 31.1-.2.4 0 .9.4 1.1 1.1.4 7.1 27.4 7.8 35.3.3 3.3.9 7.6 1.4 9.5 1 3.8 5 31.6 7.2 49.5.9 8.1 1.3 27.1 1.3 71.5s-.4 63.4-1.3 71.5c-2.2 17.9-6.2 45.7-7.2 49.5-.5 1.9-1.1 6.2-1.4 9.5-.7 7.9-6.7 34.9-7.8 35.3-.4.2-.6.7-.4 1.1.6.9-4.4 20.3-8 31.1-1.3 4.1-2.7 9.1-3 11-.3 1.9-2.2 8.7-4.3 15-2.1 6.3-4.9 14.8-6.2 18.9-1.3 4.1-3 8-3.6 8.7-1.6 1.6-3.3 5.9-4 9.9-.3 1.6-2.1 6.4-4 10.5-4.5 9.6-5.5 12.1-6 14.5-.4 2.4-5.7 13.6-15.5 33-3.9 7.7-8.9 17.6-11 22-2.2 4.4-5.2 10-6.8 12.5-1.6 2.5-3 5.2-3.2 6-.2.8-.6 1.7-.9 2-1.2 1.1-9.9 14.8-9.9 15.7 0 .5-1 2.2-2.3 3.7-1.3 1.5-3.8 5.6-5.6 9.1-1.9 3.6-3.8 6.5-4.2 6.5-.5 0-.9.6-.9 1.3 0 .7-.9 1.9-2 2.7-1.1.8-2 2-2 2.7 0 .7-.4 1.3-1 1.3-.5 0-1 .6-1 1.4 0 .8-.3 1.6-.7 1.8-1 .4-6.3 7.5-6.3 8.3 0 1-5.8 9.1-9 12.6-1.6 1.8-2.7 3.6-2.5 4 .3.4-.2.9-1 1.3-.8.3-1.5 1-1.5 1.5s-1.6 2.6-3.5 4.7c-1.9 2-3.5 4.1-3.5 4.7 0 .5-.6 1.5-1.4 2.1-1.3 1-18.6 22.4-18.6 22.9 0 1.8-69.7 71.6-71.6 71.7 0 0-2.2 2-4.8 4.5-5.5 5.1-30 24.7-31.2 24.9-.4 0-2.5 1.8-4.5 3.8-2.1 2.1-4.2 3.8-4.7 3.8s-2.1 1.1-3.6 2.5-2.9 2.5-3.2 2.5c-.9 0-16.9 11.3-17.2 12.2-.2.4-1 .8-1.7.8s-1.5.4-1.7.8c-.5 1.3-25.2 17.1-30 19.3-1.6.7-2.8 1.6-2.8 2 0 .4-1.1 1-2.5 1.3-1.4.4-2.5 1.1-2.5 1.6 0 .6-.6 1-1.4 1-.8 0-1.6.4-1.8.9-.3 1-7.7 5.1-21.8 12.3-5.2 2.6-10.2 5.2-11 5.8-.8.5-4.2 2.2-7.5 3.7-3.3 1.4-6.7 3.2-7.5 3.9-1.7 1.4-28.2 13.3-30.9 13.9-.9.2-5 1.9-9.2 3.9-4.1 1.9-10.7 4.5-14.5 5.8-3.8 1.2-7.4 2.7-8.1 3.4-1 .9-28 10.1-41.3 13.9-2.5.7-7.9 2.3-12 3.5-32 9.2-53.5 14.2-78 18-55.8 8.6-61.5 9-122 9s-66.2-.4-122-9c-24.5-3.8-46-8.8-78-18-4.1-1.2-9.5-2.8-12-3.5-13.3-3.8-40.3-13-41.3-13.9-.7-.7-4.3-2.2-8.1-3.4-3.8-1.3-10.4-3.9-14.5-5.8-4.2-2-8.3-3.7-9.2-3.9-2.7-.6-29.2-12.5-30.9-13.9-.8-.7-4.2-2.5-7.5-3.9-3.3-1.5-6.7-3.2-7.5-3.7-.8-.6-5.8-3.2-11-5.8-14.1-7.2-21.5-11.3-21.8-12.3-.2-.5-1-.9-1.8-.9s-1.4-.4-1.4-1c0-.5-1.1-1.2-2.5-1.6-1.4-.3-2.5-.9-2.5-1.3s-1.2-1.3-2.7-2c-4.9-2.2-29.6-18-30.1-19.3-.2-.4-1-.8-1.7-.8s-1.5-.4-1.7-.8c-.3-.9-16.3-12.2-17.2-12.2-.3 0-1.7-1.1-3.2-2.5-1.5-1.4-3.1-2.5-3.6-2.5s-2.6-1.7-4.7-3.8c-2-2-4.2-3.8-4.7-4-1.4-.4-25.5-19.6-31-24.7-2.6-2.5-4.8-4.5-4.8-4.5-1.9-.1-71.6-69.9-71.6-71.7 0-.5-17.3-21.9-18.6-22.9-.8-.6-1.4-1.6-1.4-2.1 0-.6-1.6-2.7-3.5-4.7-1.9-2.1-3.5-4.2-3.5-4.7s-.7-1.2-1.5-1.5c-.8-.4-1.3-.9-1-1.3.2-.4-.9-2.2-2.5-4-3.2-3.5-9-11.6-9-12.6 0-.8-5.3-7.9-6.2-8.3-.5-.2-.8-1-.8-1.8s-.4-1.4-1-1.4c-.5 0-1-.6-1-1.3 0-.7-.9-1.9-2-2.7-1.1-.8-2-2-2-2.7 0-.7-.4-1.3-.9-1.3-.4 0-2.3-2.9-4.2-6.5-1.8-3.5-4.3-7.6-5.6-9.1-1.3-1.5-2.3-3.2-2.3-3.7 0-.9-8.7-14.6-9.9-15.7-.3-.3-.7-1.2-.9-2-.2-.8-1.6-3.5-3.2-6s-4.6-8.1-6.8-12.5c-2.1-4.4-7.1-14.3-11-22-9.8-19.4-15.1-30.6-15.5-33-.5-2.4-1.5-4.9-6-14.5-1.9-4.1-3.7-8.9-4-10.5-.7-4-2.4-8.3-4-9.9-.6-.7-2.3-4.6-3.6-8.7-1.3-4.1-4.1-12.6-6.2-18.9-2.1-6.3-4-13.1-4.3-15-.3-1.9-1.7-6.9-3-11-3.6-10.8-8.6-30.2-8-31.1.2-.4 0-.9-.4-1.1-1.1-.4-7.1-27.4-7.8-35.3-.3-3.3-.9-7.6-1.4-9.5-1-3.8-5-31.6-7.2-49.5-1.9-15.6-1.9-127.4 0-143 2.2-17.9 6.2-45.7 7.2-49.5.5-1.9 1.1-6.2 1.4-9.5.7-7.9 6.7-34.9 7.8-35.3.4-.2.6-.7.4-1.1-.6-.9 4.4-20.3 8-31.1 1.3-4.1 2.7-9.1 3-11 .3-1.9 2.2-8.7 4.3-15 2.1-6.3 4.9-14.8 6.2-18.9 1.3-4.1 3-8 3.6-8.7 1.6-1.6 3.3-5.9 4-9.9.3-1.7 2.1-6.4 4-10.5 4.5-9.6 5.5-12.1 6-14.5.4-2.4 5.7-13.6 15.5-33 3.9-7.7 8.9-17.6 11-22 2.2-4.4 5.2-10 6.8-12.5 1.6-2.5 3-5.2 3.2-6 .2-.8.6-1.7.9-2 1.2-1.1 9.9-14.8 9.9-15.7 0-.5 1-2.2 2.3-3.7 1.3-1.5 3.8-5.6 5.6-9.1 1.9-3.6 3.8-6.5 4.2-6.5.5 0 .9-.6.9-1.3 0-.7.9-1.9 2-2.7 1.1-.8 2-2 2-2.7 0-.7.5-1.3 1-1.3.6 0 1-.6 1-1.4 0-.8.3-1.6.8-1.8.9-.4 6.2-7.5 6.2-8.3 0-1 5.8-9.1 9-12.6 1.6-1.8 2.7-3.6 2.5-4-.3-.4.2-.9 1-1.3.8-.3 1.5-1 1.5-1.5s1.6-2.6 3.5-4.7c1.9-2 3.5-4.1 3.5-4.7 0-.5.6-1.5 1.4-2.1 1.3-1 18.6-22.4 18.6-22.9 0-1.8 69.7-71.6 71.6-71.7 0 0 2.2-2 4.8-4.5 5.5-5.1 30-24.7 31.2-24.9.4 0 2.5-1.8 4.5-3.9 2.1-2 4.2-3.7 4.7-3.7s2.1-1.1 3.6-2.5 2.9-2.5 3.2-2.5c.9 0 16.9-11.3 17.2-12.2.2-.4 1-.8 1.7-.8s1.5-.4 1.7-.8c.5-1.3 25.2-17.1 30.1-19.3 1.5-.7 2.7-1.6 2.7-2 0-.4 1.1-1 2.5-1.3 1.4-.4 2.5-1.1 2.5-1.6 0-.6.6-1 1.4-1 .8 0 1.6-.4 1.8-.9.3-1 7.7-5.1 21.8-12.3 5.2-2.6 10.2-5.2 11-5.8.8-.5 4.2-2.2 7.5-3.7 3.3-1.4 6.7-3.2 7.5-3.9 1.7-1.4 28.2-13.3 30.9-13.9.9-.2 5-1.9 9.2-3.9 4.1-1.9 10.7-4.5 14.5-5.8 3.8-1.2 7.4-2.7 8.1-3.4 1-.9 28-10.1 41.3-13.9 2.5-.7 7.9-2.3 12-3.5 32-9.2 53.4-14.2 78-18 55.4-8.5 58.3-8.7 120.2-8.9 47.1-.1 55.9.1 72 1.9z"/><path d="M1231.8 600.9c-.8 1-2.1 5.4-2.7 9.7-4.5 32.4-7.6 49.4-11.6 63.9-.8 2.7-1.9 7.7-2.5 11-.7 3.3-2 8.9-3.1 12.5-3.8 13.4-11.1 39.6-12 43-2.7 11.1-11.9 39.8-19.9 62-5.1 14-10 27.7-11 30.5-1.8 5.2-11.2 31.7-13.1 37-.6 1.6-4.9 14-9.6 27.5-4.7 13.5-9.8 28.1-11.3 32.5-1.5 4.4-13.6 35.7-26.7 69.5-13.2 33.8-25.9 66.7-28.2 73-2.4 6.3-5.2 13.3-6.2 15.6-1 2.3-1.9 4.6-1.9 5.2 0 .6-.6 2.6-1.4 4.4-.8 1.8-2.3 5.3-3.4 7.8s-2.5 6.3-3.2 8.5c-.7 2.2-2.1 5.8-3 8-1 2.2-3 7.1-4.5 11-1.4 3.8-3.7 9.5-5 12.5-1.3 3-3.7 9.8-5.5 15-1.7 5.2-3.7 10.8-4.5 12.5-.7 1.6-2.3 6.1-3.5 10-1.2 3.8-3 8.8-4 11-8.9 19.8-39.2 106.2-41.9 119.8-.5 2.3-2.5 11.4-4.5 20.1-2 8.8-4.7 22.8-6.1 31-1.4 8.3-3 17.5-3.6 20.5-.6 2.9-1.5 9-1.9 13.5-.5 4.4-1.8 15.7-3 25.1-3.9 30.7-3.8 93.4.3 129.5 1 8.4 5.2 28.7 10.2 49.3 4.9 20 6.9 26.6 10.9 36.2.7 1.6 2.8 6.6 4.5 11 6.7 16.4 24.8 53.4 27.6 56.2.8.8 1.5 1.9 1.5 2.4 0 1.2 10.2 17.3 11.2 17.7.5.2.8.8.8 1.3 0 1 6.5 10.6 8.7 12.7.7.7 2.8 3.6 4.7 6.5 10 14.8 30.7 38.7 33.7 38.7 1 0 1.9-.2 1.9-.4 0-.3-1.4-4-3-8.3-4.2-10.8-8-31.9-9.5-52.8-1.4-19.2-2.5-24.3-9-40-3.5-8.4-6.9-17.9-7.5-21.1-.7-3.3-1.6-6.4-2-6.9-.5-.6-1.3-3.3-1.9-6-.5-2.8-1.9-9.3-3.1-14.5-6.4-29.4-12.8-63.2-13.4-70.6-.3-3.3-2-14.2-3.7-24.4-2.8-16.2-3.3-21.4-3.6-41.6-.4-20.7-.2-25.3 2.2-44.5 3.4-26.7 9.3-53.1 18-80.4 5.8-18.1 18.3-51.3 24.6-65.3 1.1-2.3 3.7-8.6 5.9-14 2.1-5.3 6.2-15.3 9.1-22.2 2.8-6.9 6.2-15 7.4-18 18-43.7 37.8-89.7 58-135 21.4-48.2 35.6-82.1 42.6-102 3-8.5 15.8-48.7 17.9-56 5.5-19.6 7.5-26 8.2-26 1 0 .1-3.2 9.2 30.5 4.2 15.4 9 33.2 10.8 39.5 1.7 6.3 9.4 27.2 17.1 46.5 7.6 19.2 18.2 46.2 23.4 60 5.2 13.7 10.5 27.2 11.8 30 1.3 2.7 3.1 7 4 9.5.9 2.5 2.3 6 3.1 7.8.8 1.8 1.4 4.1 1.4 5.2 0 1 .4 2.1.9 2.5.5.3 1.2 1.9 1.6 3.5.4 1.7 1.1 3 1.6 3s.9 1.4.9 3.1c0 1.7.6 4.3 1.4 5.7 3.3 6.5 6.6 14.4 6.6 15.7 0 .8.4 1.5.9 1.5s1.1 1 1.4 2.2c1 4.3 3.8 11.3 7.3 18.1 1.9 3.8 3.4 7.6 3.4 8.6 0 .9.5 2.2 1 2.7 1.1 1.1 4.4 9.3 6.2 15.3.5 1.9 1.6 4.4 2.3 5.5.7 1.2 1.8 4.2 2.5 6.8.7 2.7 1.6 4.8 2 4.8.4 0 1 1.2 1.3 2.7.2 1.6 2.5 8.4 5 15.3 11.2 30.6 27.5 83.7 31.1 101 6 29.4 9 62.5 9 100 0 36.7-2.1 58.9-9.8 101.1-5.1 28.1-16.8 71.1-24.4 89.9l-4.6 11.5-1.2 34c-.7 18.7-1.5 35.5-1.8 37.4l-.5 3.4 2.2-3.1c23.4-32.6 31.1-44.6 49.8-77.8 23.6-41.9 36.6-75.2 45.4-115.9 4.3-20.1 10.3-63.7 11.6-85 2.3-38 .1-90.9-5.6-135-3.5-27.1-4.8-35.1-9.1-57.5-8.4-43.8-30.1-110.8-52.1-161.5-11-25.3-47-124.1-60.3-165.5-4-12.4-14-42.1-22.3-66-21.5-62.3-29.4-88.1-41.2-134.5-10.5-41.4-14.5-59.8-21-98-7.8-45.6-11.6-61.5-14.4-61.5-.4 0-1.4.8-2.3 1.9z"/><path d="M1145.8 1244.5c-.3.3 1.9 8 4.8 17 9 27.6 12 49.7 11.1 80.9-.6 18.5-.9 21.5-4.7 38.6-4.9 22.4-12.5 45.7-35.9 109.3-5.2 14.2-18.4 57-22 71.2-2.4 9.7-11.4 56.1-13.5 70-2.1 13.8-3.5 33.4-4.6 63.5-1 28.6-.2 38.2 5 64 2.5 12.6 8.9 32.7 12.1 38.3.5 1 2.7 5.8 4.8 10.7 5.6 12.9 11.5 20.5 30.6 39.5l17 17 14.6 7.8c16.6 8.8 25.3 11.3 42.9 12.4 17 1 33.5-1.7 48.7-7.8 23-9.3 41.5-23.2 57.7-43.3 19.9-24.6 28.2-43.8 33.1-76.5 3.1-20.3.8-92.9-3.5-111-.6-2.4-3.1-16.2-5.6-30.5-2.5-14.4-5.3-29.9-6.3-34.6-6.8-31.1-33.2-102.9-56.6-154-24.5-53.6-40.1-85.5-43.9-89.9-.7-.9-5.8-8.4-11.4-16.6-12.2-18.2-31-39.9-48.7-56-7.1-6.6-15.1-13.8-17.7-16.2-4.4-4-6.7-5.1-8-3.8zm40.1 56.2c15.3 15.3 28 32 37.8 49.8 8.7 15.8 27.8 56.5 37.9 80.7 4 9.8 7.8 18.6 8.4 19.5.5 1 5.8 13.9 11.6 28.8 28.6 72.9 36.3 100.1 44.3 155.5 1.7 11.3 4 26.3 5.2 33.5 1.8 11.2 2.1 16.9 2.1 42 0 31.6-1.2 44.5-5.9 63-5.2 20.6-13.8 36.8-30.2 56.9-9.6 11.7-11.6 13.6-22.1 20.6-15.9 10.6-32.5 17.5-47.5 19.6-10.2 1.5-12 1.5-24-.2-16.6-2.2-29-7.2-45.5-18.5-12.6-8.6-20.7-17-30.6-32.1-11.3-17.2-16.9-31.5-23.4-59.8-10.6-45.5-8.5-96.8 7.1-175.5 9-45.2 15.3-68.8 29.5-110.8 19.7-58 23.1-68.7 27.4-86.1 7.2-29.3 8.7-53.5 5-81.2-2.3-17.2-2.4-18.4-1-18.4.6 0 6.9 5.7 13.9 12.7z"/><path d="M1175.8 1460.7c-4.3 7.4-18.9 69.7-22.3 95.3-1.2 9.4-1.6 18.1-1.3 34.4.3 21 .4 21.8 2.5 23.5 1.8 1.5 5.2 1.9 20.7 2.5 12.7.5 19.2.4 20.6-.4 3.8-2 5.3-6.9 6.6-21.5 2-21.8-.3-56.8-5.6-84.5-.5-3-1.9-10.2-3-16-1.9-10.3-5.1-21.1-8.6-28.7-3.6-7.8-6.8-9.3-9.6-4.6zm6.1 26.7c.6.7 3.4 11.6 6.2 24.2 2.7 12.6 5.6 25.8 6.4 29.4 2.6 11.7 3.9 37.2 2.7 51.5-1.4 16-2.1 17.1-11.6 16.9-7.7-.2-12-2-12.5-5.4-.2-1.4.2-14 .8-28 .7-14 1.3-38.3 1.5-54 .1-24.1.4-29.1 1.8-32.3 1.8-4 2.9-4.5 4.7-2.3zM1235.6 1466.2c3.5 12.9 5.6 30.7 6.4 55.3.5 14.9 1.4 28.4 2.4 33.3 6.9 37 17.2 53.2 33.6 53.2 6.4 0 10.2-1.9 13.2-6.7 2.2-3.6 2.3-4.6 2.3-21.8-.1-16.4-.3-19-2.9-29.4-3.9-15.6-7.3-24.5-16.1-42.1-9.7-19.4-15.3-28.1-23.1-35.7-5.1-5-14.4-11.3-16.8-11.3-.2 0 .2 2.4 1 5.2zm28.1 40.9c13.1 25.5 17.3 36.5 20.8 54.8 2.9 15.3 3 23.2.4 28.6-1.2 2.5-2.1 3-5.5 3.3-3.3.2-4.8-.2-7.3-2.4-7.2-6-10.3-17.6-14.6-53.4-1.4-11.8-3.2-25.6-4-30.5-2.3-15.4-2.9-23.2-1.5-21.9.6.7 5.9 10.3 11.7 21.5zM1256.5 1629.9c-5.7 1.5-14.5 7.6-14.5 10.1 0 .5-.4 1-.8 1-1.5 0-5.1 9.3-5.8 14.8-1.1 9.2 3.1 21.9 9.4 28.6 5.5 5.7 12.3 8.6 20.4 8.6 6.5 0 6.7-.1 11.1-4.3 6.5-6.4 9.1-13.7 9.2-25.7 0-10.2-2-17.4-6.9-24.7-4.5-6.6-14.4-10.4-22.1-8.4zm11.1 8c7.9 3.6 13.2 16 12.2 28.9-.3 4.7-1.2 7-4.1 11.4-4.6 7.1-10.8 9.7-18 7.7-4.8-1.3-12.1-8.7-13.9-14.1-3.6-10.7-1.5-22.7 5-29.3 6.5-6.6 11.7-7.8 18.8-4.6zM1181 1694.6c-8.7 5.2-12 8.5-11.3 11.2.2 1 2.9 4.7 5.8 8.1 5.8 6.5 7.5 10.8 7.5 18.3 0 8.4 3 27.7 5.2 33.5 3.7 10 15.6 27 23.7 33.9 5 4.3 10.1 5.7 18.1 5.2 5.5-.4 7.6-1.1 11.4-3.7 9.8-6.8 16.2-16.7 22-33.8 7-20.7 10.6-27.1 19.5-35 4.2-3.8 8.9-7.7 10.4-8.6 2.9-1.9 4.8-5.3 4-7.5-1-2.4-5.5-1.1-18.1 5l-12.7 6.3h-15c-17 0-20.6-.9-37.1-9.1-15-7.5-17.1-9.9-18.9-21.6-.6-4.1-2.8-6.8-5.3-6.8-.9 0-5.1 2.1-9.2 4.6zm25 29.3c7.1 4.9 21.2 10.5 32 12.6 7.7 1.6 16.7 1.7 27.5.3 3.2-.5 2.9 2.8-1 9.1-4.8 7.7-7.1 8.7-19.9 8.3-29.5-.8-52.8-13.5-52.8-28.8 0-7.6 4.7-8.1 14.2-1.5zm13.5 44.5c7.6 1.7 16.2 5 18.6 7.2 2.5 2.3 2.5 7.6-.1 13-2.8 5.6-4.8 7.2-10.5 8.3-4.1.8-5.6.6-8.5-.9-6.8-3.5-17-16.7-17-22.1 0-6.8 4.8-8.3 17.5-5.5zM1137.3 1730.8c-2.6 1.6-4.3 8.2-4.3 16.1 0 10 3.4 21.3 8.8 29.7 4.5 6.9 6.4 8.7 8.9 8.2 2.9-.5 2.7-4.4-.5-11.1-4.6-9.8-5.5-15.4-5-29.2.5-12.2.5-12.3-1.9-13.4-2.8-1.3-4.3-1.4-6-.3zM471.2 489.3c-1.2.6-6.8 6.4-12.4 12.7-5.5 6.3-12.8 14.6-16.2 18.4-7.3 8.2-7.8 9.4-7 15.8.7 4.9.8 5.1 16.3 18.7 8.6 7.6 51.1 45.4 94.6 84l79 70.1h5.7c6.9 0 6.2.5 23.8-19.5 6.8-7.7 13.7-15.4 15.3-17.2 2.7-2.9 3-3.8 2.8-9-.1-3.2-.7-6.5-1.4-7.4-.7-.9-41.7-37.6-91.2-81.5-49.5-43.8-91.7-81.2-93.8-83.1-3.1-2.8-4.5-3.3-8.5-3.3-2.6 0-5.7.6-7 1.3zM2135.3 670.8c-6 3.1-56.5 29.7-112 59.1-76.5 40.4-101.4 54-102.2 55.8-.6 1.3-1.4 4.1-1.7 6.2-.6 3.6 1.8 8.5 37.7 76.5 37.4 70.7 38.5 72.6 42.2 74.1 2 .8 4.9 1.5 6.4 1.5 2.6 0 33.3-15.4 38.8-19.5 3.3-2.4 6-10 4.8-13.2-.4-1-10.9-21.2-23.4-44.9-12.6-23.7-22.9-43.7-23.1-44.3-.2-.7 37.6-21.2 88.2-48l88.5-46.7 1.6-5.5c2-6.5 2.8-4.4-11.8-31.9-9.5-17.9-11.3-20.7-14.4-22.1-6.9-3.3-7.9-3.2-19.6 2.9zM318.7 698.7c-9.3 14.9-33.7 58.6-33.7 60.5 0 1.6 26.4 33.9 85 103.8 46.8 55.8 86.7 103 88.7 104.9 3.4 3.2 3.8 3.3 8.8 2.7 2.9-.3 6-.8 6.7-1.1 1.8-.7 25.8-42.4 25.8-44.7 0-.9-8.8-12.1-19.5-24.9-10.7-12.7-19.5-23.5-19.5-23.9 0-.7 22.6-40.4 41.1-72.1l3.8-6.6 29.4 5c16.1 2.8 30.4 4.7 31.8 4.4 1.9-.5 5.5-5.9 17.2-26.2 8.1-14.1 14.7-26.5 14.7-27.6 0-2.8-4.6-11.5-6.4-12.2-2.6-1-265.1-45.7-268.4-45.7-2.6 0-3.6.7-5.5 3.7zm91.8 81.8c17.1 3 32 5.7 33.2 6 2 .5 1.3 2-9.9 21.2-6.5 11.5-12.3 21.1-12.6 21.5-.6.6-46.1-52-47.1-54.4-.2-.6.9-.8 2.5-.4 1.6.3 16.9 3.1 33.9 6.1zM266.5 896.5c-15.9 3.4-34.1 13.7-43.7 24.6-7.3 8.2-15 21.2-19.6 33.2-2.6 6.7-8.9 30.3-18.3 68.6l-14.2 58.4 2.4 4.4c1.3 2.5 3.2 4.9 4.1 5.4 1 .5 49.6 12.6 108 26.9 58.5 14.3 113.3 27.7 121.8 29.8 16.7 4.2 17.8 4.2 23.7-.4 3-2.2 3.4-3.5 8.7-25.3 3.1-12.6 5.6-24.1 5.6-25.5 0-3.9-4.7-10.3-8.4-11.5-1.7-.5-21.1-5.3-43.1-10.7-22-5.3-40.4-10-40.9-10.4-.4-.5 2.3-13.7 6.2-29.7 9.1-37 9.6-39.7 8.9-55.7-.6-15.3-2.7-23.9-8.7-36.5-11.7-24.3-32-39.9-59.4-45.5-9.3-1.9-24.7-2-33.1-.1zm22.4 70.1c6.4 1.9 12.7 7.3 15.4 13.3 3.5 8 2.7 17.1-4.3 45.1-3.3 13.4-6.2 24.5-6.4 24.7-.3.4-48.7-11.5-50.7-12.5-1.4-.6-.9-3.5 4.1-23.5 8.6-34.4 12.1-41.5 22.4-46.3 6-2.8 12.1-3 19.5-.8zM2149 984c-65.7 11.9-120.9 22-122.7 22.4-2.3.5-4 2-6.3 5.6l-3.1 4.8 16.1 89.4 16.1 89.3 3.7 3.2c2 1.8 4.5 3.5 5.4 3.8.9.3 10.8-1 22-3l20.3-3.6 3.2-3.7c1.8-2 3.5-4.5 3.9-5.4.3-1-4.2-28.1-10.1-60.4-5.8-32.3-10.4-58.8-10.2-59.1.3-.2 11.1-2.3 24-4.7l23.6-4.2 1.5 8.3c.8 4.5 4.5 25 8.2 45.5l6.6 37.3 3.6 3.3c2 1.8 4.6 3.5 5.9 3.8 1.3.4 10.7-.9 21.1-2.7 20.2-3.6 21.2-4.1 24.5-11.2 1.4-3 1-5.8-6.7-48.7-4.5-25-8-45.6-7.7-45.7 2.5-1.1 44.6-8.1 45.1-7.5.4.4 5.1 25.2 10.4 55.2 5.4 30 10.2 56.1 10.7 58 .6 2.6 2 4.2 5.2 6.2 2.4 1.6 5.2 2.8 6.2 2.8s9.9-1.4 19.9-3.2c17.5-3.1 18.2-3.3 21.3-6.6 1.8-1.8 3.6-4.5 4-6 .5-2.3-7.1-46.2-29.1-167.2l-2.1-11.4-4.3-3.3c-3-2.3-5.4-3.3-7.5-3.2-1.8.1-57 9.9-122.7 21.9zM432.5 1547.1c-15.9 8.2-48.3 24.8-72 36.9-23.6 12.1-46.6 24.3-51 27.1-10.1 6.6-23.1 19.5-27.8 27.6-16.6 28.6-13.7 66.7 8.4 110 16.2 31.6 38.7 55.2 63.3 66.3 18.7 8.5 37.9 8 62-1.7 10.9-4.3 149.2-74.8 152.3-77.5 1.2-1.1 2.7-4.2 3.3-6.8l1.2-4.9-10.4-20.3c-9.4-18.6-10.6-20.5-14.1-22.2-2.1-1-5.2-1.8-7-1.8-2.3-.1-23.3 10.2-74.1 36.2-39 20-73.5 37.1-76.8 38.1-8.3 2.6-16.4 2.5-21.7-.4-9.8-5.2-21.5-20.8-26.8-35.8-2-5.5-2.8-9.9-3.1-17.4-.4-10-.4-10 3-15 1.8-2.7 5.6-6.7 8.3-8.7 2.8-2.1 23.5-13.3 46-24.8 22.6-11.5 55-28.1 72-36.8l31-15.8 2-5.8 2-5.8-13.4-26.3c-14.5-28.4-14.4-28.3-23.1-29-4.2-.4-6.5.6-33.5 14.6zM1990 1628c-10.1 2.7-25.7 10.5-35.5 17.8-20.2 15-40.3 41.2-49.3 64.2-7.7 19.6-9.8 42.6-5.4 59.8 8.4 32.9 40.4 57.2 75.3 57.2 20.6 0 38.2-9.1 65.9-34.1 43.3-39.2 48.1-42.7 56.4-41.5 5.4.8 10.2 3.9 13.4 8.6 2.2 3.2 2.3 4.3 2 12.1-.4 7.6-.9 9.6-4.5 17-7.9 16.4-24 34.6-35.2 39.8-7.7 3.5-16.7 4-24.6 1.2-6.7-2.4-9.6-2.6-11.3-.9-.6.6-5.9 12.4-11.8 26l-10.6 24.9 1.6 4.3c2.6 6.7 3.6 7.5 12.1 9.8 10.8 2.9 31.7 3.1 42 .4 44.2-11.6 90.1-64 101.1-115.6 2.6-12.2 2.4-32.8-.4-43.3-11.8-43.5-61.1-69.6-101.1-53.4-15 6.1-26.2 14.4-56.5 41.9-23.4 21.4-26.4 23.8-33.2 27.2-12.5 6.3-22.4.2-22.4-13.8 0-10.7 8.4-26.2 19.8-36.8 9.5-8.7 17.7-11.2 29.2-8.7 2.8.6 6.2.8 7.4.5 2.7-.7 2.9-1.1 14.6-30.9l8.1-20.8-2.4-5.3c-2.2-4.8-3-5.5-7.3-7.1-7.8-2.7-27.9-3-37.4-.5zM606.8 1776.7c-1 .2-8 7.4-15.8 15.9-13.5 15-14 15.6-14 19.9 0 2.4.4 5.5.9 6.8.5 1.4 12.5 12.9 26.6 25.7l25.6 23.2-2.4 2.7c-1.3 1.4-10.4 11.6-20.3 22.6-9.8 11-18.1 20.2-18.4 20.5-.3.3-8.7 9.5-18.6 20.5-9.9 11-30.9 34.3-46.7 51.8l-28.7 31.8v5.4c0 2.9.3 6 .6 6.8.7 2 44 41 46.2 41.8 1 .3 4 .3 6.9.1l5.2-.4 67.1-74.4c36.9-40.9 67.5-74.6 68-74.9.5-.3 8.5 6.3 17.7 14.6 9.2 8.4 18.6 16.8 20.8 18.8 2.2 2 6.4 5.7 9.2 8.3 4.6 4.2 5.7 4.8 9.7 4.8 2.5 0 5.6-.4 6.9-.9 1.3-.5 8.6-7.8 16.2-16.2l13.7-15.2-.4-5.8c-.2-3.1-1.1-6.5-1.9-7.5-.8-1-33.3-30.6-72.4-65.8-39-35.2-75.4-68-80.7-72.8-9.5-8.6-9.9-8.8-14.5-8.7-2.7.1-5.6.3-6.5.6zM1830 1812.7c-3 2-124.6 107.8-130.7 113.6-4.9 4.7-6.6 10.9-4.2 15.7 1.1 2.2 150.3 174.3 156.5 180.4 1.7 1.7 9.8 2.8 12.6 1.7 3.7-1.4 136.8-118.1 137.9-120.8.5-1.3.9-4.3.9-6.6 0-3.9-.8-5.1-9.6-15.2-17.1-19.6-16.7-19.2-22.4-20-3.9-.5-5.6-.3-7.5.9-1.4.9-22.1 18.7-46 39.6-23.9 20.9-43.7 38-44 38-.8 0-29.5-33.4-29.3-34.1.2-.3 15.6-14 34.3-30.2 18.7-16.3 34.6-30.7 35.2-31.9.7-1.3 1.3-4.3 1.3-6.8 0-4.3-.5-5.1-11.7-18.1-6.5-7.5-12.8-14.2-14.1-14.8-1.3-.6-4.4-1.1-7-1.1h-4.7l-35 30.5c-19.2 16.8-35.3 30.4-35.6 30.3-.8-.4-27.9-31.5-27.9-32.1 0-.2 20-17.8 44.4-39.1 46.6-40.6 45.6-39.6 45.6-47.7 0-2.9-7.6-12.7-20.7-26.6-5.3-5.6-6.3-6.3-10.8-6.8-3.8-.4-5.6-.2-7.5 1.2zM830.5 1962.9c-3.9 1.8-5 3.7-60.4 108.1l-56.5 106.3 2 5.6 1.9 5.6 23 12.3c20.9 11.2 23.3 12.2 26.9 11.7 8.7-1.3-.7 15.1 101.8-177.7l20-37.8-1.2-4.9c-.6-2.7-1.9-5.6-2.8-6.4-3.8-3.3-45.4-24.7-48-24.7-1.5 0-4.5.9-6.7 1.9zM1620.7 1973.4c-2.3 1.2-12.8 6.8-23.4 12.5-20 10.9-20.7 11.5-21.9 19-.6 3.7 2.3 9.3 56.7 109.5l57.4 105.6 4.4 1.5c2.5.8 5.3 1.5 6.3 1.5s12-5.5 24.4-12.3c23.6-12.8 24.5-13.5 25.9-21 .7-3.5-2.2-9.2-56.5-109-31.5-57.8-58-105.7-58.9-106.2-.9-.6-3.5-1.5-5.9-2.2-3.8-1-4.7-.9-8.5 1.1zM963.6 2021.5c-2.2 1.3-4.3 3.1-4.8 3.9-.4.8-4.6 16.9-9.2 35.8-11.1 45.5-32.1 131.1-41.1 167.8-7.8 31.9-7.8 31.9-2.7 37.7 2.5 2.9 4.6 3.6 36.2 11.2 18.4 4.4 53.7 13 78.3 19.1 24.7 6 45.9 11 47.1 11 1.3 0 4.1-1.3 6.4-3 4.6-3.3 4-1.9 10.1-27l4-16.4-2.2-4.4c-1.2-2.5-3.1-5-4.2-5.7-1.1-.7-23.9-6.6-50.7-13.1-26.9-6.5-48.8-12.3-48.8-12.9 0-.5 9.9-41.5 22.1-91 12.1-49.5 22.1-91.1 22.1-92.3 0-1.3-1.3-4.3-2.9-6.5l-2.9-4.2-24.9-6.2c-13.8-3.4-25.7-6.2-26.5-6.2-.8 0-3.3 1-5.4 2.4zM1399.5 2041.9l-106.9 21.7-3.5 4.8-3.5 4.9 3.9 19.6c2.1 10.8 4.2 20.5 4.7 21.6.5 1.2 3 3.4 5.5 5l4.6 2.9 34.4-6.8c18.9-3.8 34.6-6.6 35-6.2.4.3 9.6 44.8 20.5 98.9 19.2 95.2 19.9 98.3 22.6 100.4 6.6 5.5 5.7 5.5 37-.8 15.8-3.1 29.5-6 30.4-6.4.9-.4 3.1-2.8 4.8-5.4l3-4.8-19.4-96.4c-10.7-53-19.6-97.7-19.8-99.3l-.3-2.9 34-6.9 34-6.8 3.3-3.7c1.8-2 3.5-4.7 3.8-5.9.6-2.2-5.8-36.7-7.7-41.4-1.1-2.9-8.6-8-11.5-7.9-1 0-50 9.8-108.9 21.8zM1165 2065.6c-3.5 3.3-4.3 4.8-4.6 8.4-.5 4.8-10.2 214.7-10.6 229.3l-.3 8.8 4 3.8c4 3.7 4.2 3.8 14.5 4.4 5.8.4 17.9.9 27 1.3l16.5.6 3.9-4.1c3.5-3.6 4-4.7 4.4-9.8.2-3.2 2.7-56.9 5.7-119.3 5.7-123.8 5.8-117.1-.3-122.1-2.8-2.5-3.8-2.6-18.3-3.3-8.5-.3-20.4-.9-26.5-1.3l-11.2-.6-4.2 3.9z"/></svg>